<?xml version="1.0" standalone="no"?>
<!DOCTYPE svg PUBLIC "-//W3C//DTD SVG 20010904//EN"
 "http://www.w3.org/TR/2001/REC-SVG-20010904/DTD/svg10.dtd">
<svg version="1.0" xmlns="http://www.w3.org/2000/svg"
 width="350.000000pt" height="350.000000pt" viewBox="0 0 350.000000 350.000000"
 preserveAspectRatio="xMidYMid meet">
<metadata>
Created by potrace 1.11, written by Peter Selinger 2001-2013
</metadata>
<g transform="translate(0.000000,350.000000) scale(0.100000,-0.100000)"
fill="#000000" stroke="none">
<path d="M0 1750 l0 -1750 1750 0 1750 0 0 1750 0 1750 -1750 0 -1750 0 0
-1750z m3490 0 l0 -1510 -115 0 -115 0 0 115 0 115 -115 0 -115 0 0 120 0 120
-120 0 -120 0 0 1040 0 1040 120 0 120 0 0 120 0 120 115 0 115 0 0 115 0 115
115 0 115 0 0 -1510z m-1860 230 l0 -350 -230 0 -230 0 0 -115 0 -115 -115 0
-115 0 0 465 0 465 345 0 345 0 0 -350z m930 -115 l0 -465 -115 0 -115 0 0
115 0 115 -115 0 -115 0 0 -115 0 -115 -115 0 -115 0 0 465 0 465 345 0 345 0
0 -465z"/>
<path d="M1170 1985 l0 -115 115 0 115 0 0 115 0 115 -115 0 -115 0 0 -115z"/>
<path d="M2100 1985 l0 -115 115 0 115 0 0 115 0 115 -115 0 -115 0 0 -115z"/>
</g>
</svg>
